<svg id="Layer_1" data-name="Layer 1" xmlns="http://www.w3.org/2000/svg" viewBox="0 0 489.36 205.92"><defs><style>.cls-1{fill:#231f20;}.cls-2{fill:#98a4c6;}.cls-3{fill:#fefefe;}.cls-4{fill:#080707;}</style></defs><rect class="cls-1" width="489.32" height="205.2"/><path class="cls-2" d="M245.11,205.89q-121.72,0-243.45,0c-1.07,0-1.2-.3-1.2-1.25q0-101.73,0-203.46C.45.13.75,0,1.71,0q243.45,0,486.9,0c1.07,0,1.2.3,1.2,1.25q0,101.73,0,203.46c0,1.08-.3,1.2-1.26,1.2Q366.84,205.88,245.11,205.89Zm0-205.37v0H2.89C1,.55,1.2.29,1.2,2.17V203.58c0,1.59,0,1.59,1.62,1.59l484.6,0c1.68,0,1.68,0,1.68-1.67V2.12c0-1.6,0-1.6-1.62-1.6Z" transform="translate(-0.46)"/><path class="cls-3" d="M245.12.52H487.48c1.62,0,1.62,0,1.62,1.6V203.53c0,1.67,0,1.67-1.68,1.67l-484.6,0c-1.62,0-1.62,0-1.62-1.59V2.17C1.2.29,1,.55,2.89.55H245.12Zm10.6,91.26.14.25.57.92c3.26,5.18,4.79,10.75,3.73,16.88s-4.26,11-8.43,15.28c-6,6.24-13.28,10.69-21,14.53-.15.08-.34.24-.53,0,0-.52.55-.62.89-.86,6.79-4.88,13-10.38,17.4-17.61,6.47-10.64,6.88-21.33-.06-32a1.74,1.74,0,0,0-2.43-.67c-.94.45-.91,1.32-.91,2.16,0,8.88,0,17.76,0,26.63,0,.83-.2,1.07-1.05,1.06-3.16-.05-6.32,0-9.48,0-2.52,0-2.52,0-2.52-2.55v-7.47a57.94,57.94,0,0,1-8.2,10.48c-7.3,7.39-15.92,12.9-25.14,17.51-16.15,8.06-33.29,13-51,16.29a246,246,0,0,1-25.65,3.29,53.1,53.1,0,0,1-8.73.35,187.14,187.14,0,0,1-35.75-6.52c-11.23-3.24-22-7.5-31.89-13.89-6.7-4.35-12.71-9.45-16.84-16.43C23.85,110.83,23.41,102,28,93.05c3.1-6.07,7.82-10.73,13.14-14.86,2.78-2.16,5.81-3.92,8.72-5.87v0c.52.39.06.78-.06,1.12a87,87,0,0,0-4.38,23,88.48,88.48,0,0,0,6.19,37.86,3.66,3.66,0,0,0,1.84,2,131.07,131.07,0,0,0,27.8,10.8c2.34.63,4.69,1.2,7.36,1.87-17.07-19.53-24.86-41.91-22.54-67.44S80.3,35.45,100.39,19.47a2.47,2.47,0,0,0-1.34.4A88.17,88.17,0,0,0,66.32,44.06a90.14,90.14,0,0,0-15.58,26.6,1.4,1.4,0,0,1-1,.83A103.55,103.55,0,0,0,32,80.16c-6.46,4-12.34,8.72-16.56,15.18S9.71,109,12.14,116.57c1.87,5.88,5.56,10.55,10,14.66,7.06,6.48,15.35,11,24.11,14.67a160.88,160.88,0,0,0,29.36,8.91v.25c-2.53-.33-5.07-.62-7.59-1a163.6,163.6,0,0,1-26.92-6.46,132.94,132.94,0,0,1-14.66-6.06c-.12-.16-.33-.31-.46-.18s.12.25.2.38.38.41.58.6A74.11,74.11,0,0,0,48,155.5c18,7.68,36.94,10.95,56.32,12.24,5.66.38,11.34.29,17,.56a330.85,330.85,0,0,0,34.5,0A250.8,250.8,0,0,0,204.21,161c12.27-3.15,24.18-7.3,35.32-13.43,7.64-4.21,14.71-9.17,20.21-16.06,4.06-5.08,6.79-10.74,6.86-17.37.08-9.08-4.25-16.14-10.49-22.29l-.24-.23a1.59,1.59,0,0,0-.21-.2C255.49,91.57,255.6,91.68,255.72,91.78Zm-65.66,77.88a2.11,2.11,0,0,0-.45.09,87.67,87.67,0,0,1-38.87,7.63,88.64,88.64,0,0,1-25.81-4.66,13.22,13.22,0,0,0-3.3-1c-4-.29-8-.1-12-.28a226.17,226.17,0,0,1-31-3.42c-1.22-.23-2.42-.79-3.72-.49l.22-.06-.06-.11-.15.17a8,8,0,0,1,.66.48,88.36,88.36,0,0,0,73.53,20.58,87,87,0,0,0,40.3-18.21c.25-.2.78-.24.66-.78.12.2.22,0,.32,0s0-.1,0-.1S190.1,169.49,190.06,169.66Zm-85.4-92.6c-3.44,0-6.88,0-10.32,0-.76,0-1,.15-1,1,.06,2.27.1,4.56,0,6.83,0,1.12.33,1.29,1.33,1.28,6.36,0,12.72,0,19.08,0,3.22,0,4.6,1.39,4.6,4.57,0,4.28,0,8.56,0,12.84a3.7,3.7,0,0,1-4,4c-5.71,0-11.43,0-17.15,0-2.57,0-4.18-1.55-4.16-3.93a3.86,3.86,0,0,1,4.2-4.13c5.35.1,10.71,0,16.07,0,.67,0,1-.06,1-.88q-.07-3.72,0-7.44c0-.71-.24-.84-.89-.83-5.59,0-11.19,0-16.79,0a12.36,12.36,0,0,0-12,9.16c-2.62,9.13,3.36,17.06,12.87,17.06,5.75,0,11.51,0,17.27,0a12.37,12.37,0,0,0,3.32-.4c5.59-1.49,9.35-6.55,9.41-12.8,0-4.43,0-8.87,0-13.31a14.79,14.79,0,0,0-.6-4.13,12.91,12.91,0,0,0-12.2-8.93C111.3,77.05,108,77.06,104.66,77.06Zm98.61,0c-3.47,0-7,0-10.43,0-.73,0-1,.17-1,.92.05,2.28.08,4.56,0,6.83,0,1,.22,1.34,1.31,1.33,6.43,0,12.87,0,19.31,0,2.79,0,4.37,1.4,4.41,4.07q.12,6.66,0,13.31c0,2.66-1.6,4.08-4.26,4.08q-8.33,0-16.67,0c-2.74,0-4.48-1.52-4.47-3.9A4,4,0,0,1,196,99.5c5.27.14,10.55,0,15.83.06.81,0,1.11-.17,1.08-1q-.09-3.53,0-7.07c0-.86-.24-1-1.06-1-5.56,0-11.12,0-16.68,0a12.05,12.05,0,0,0-3.42.46c-5.86,1.68-9.58,7.27-9.15,13.77a12.63,12.63,0,0,0,12.8,12c6,0,12,0,18,0a12.67,12.67,0,0,0,3.19-.39c5.62-1.49,9.42-6.65,9.46-12.9q0-6.54,0-13.07a14.87,14.87,0,0,0-.56-4.14,12.93,12.93,0,0,0-12.2-9.07C209.91,77,206.59,77.06,203.27,77.06Zm157.4,0h-8.75a12.7,12.7,0,0,0-12.83,12.71c0,4.79,0,9.59,0,14.39a12.29,12.29,0,0,0,11.83,12.38c5.89.39,11.83.08,17.75.11.53,0,.68-.15.67-.68,0-2.56,0-5.11,0-7.67,0-.6-.2-.75-.76-.73-1.2,0-2.4,0-3.6,0-4.28,0-8.56,0-12.83,0-2.26,0-3.94-1.37-4-3.32-.06-4.88-.07-9.76,0-14.63a3.5,3.5,0,0,1,3.44-3.47c.83-.05,1.68,0,2.52,0,5,0,10,0,15,0,1.81,0,3.32.58,4,2.38.87,2.23-.08,5.79-3.82,5.77-5.36,0-10.72,0-16.08,0-.82,0-1.09.18-1.06,1q.09,3.48,0,7c0,.82.18,1.07,1,1.06,5.44,0,10.87,0,16.31,0a14.27,14.27,0,0,0,3.79-.47c6.94-2,10.83-9.74,8.53-17a12.88,12.88,0,0,0-12.07-8.75C366.75,77,363.71,77.06,360.67,77.06Zm-42.44,39.58c4.32,0,8.64,0,13,0,.86,0,1.05-.25,1-1.06-.06-2.4-.08-4.8,0-7.2,0-1-.21-1.34-1.3-1.33-8.19.05-16.39,0-24.59,0-2.35,0-3.69-1.13-3.72-3.29-.05-4.63,0-9.27,0-13.91a3.09,3.09,0,0,1,2.64-3.22,10.63,10.63,0,0,1,1.79-.09c8,0,16,0,24,0,1,0,1.22-.25,1.19-1.2q-.11-3.59,0-7.19c0-1-.25-1.18-1.18-1.18-8.36,0-16.72,0-25.07,0a12.33,12.33,0,0,0-3,.37,12.69,12.69,0,0,0-9.9,12.37c-.16,4.75-.15,9.52,0,14.27a12.77,12.77,0,0,0,13.14,12.56ZM135.59,95.18c0,5.64,0,11.27,0,16.91a4.44,4.44,0,0,0,2.35,4,6.39,6.39,0,0,0,3.69.62,35.34,35.34,0,0,0,22.29-8.65c9.47-8,14.71-18.74,18.66-30.21.21-.61.08-.83-.62-.82-2.6,0-5.2.08-7.79,0-1.12,0-1.52.32-1.87,1.38-3.06,9.16-7.76,17.29-15.24,23.59a19,19,0,0,1-10.72,4.82c-1,.09-1.35-.13-1.34-1.25,0-9.11,0-18.23,0-27.34,0-.92-.21-1.22-1.17-1.19q-3.6.1-7.19,0c-.91,0-1.12.22-1.11,1.11C135.61,83.83,135.59,89.5,135.59,95.18Zm98.38,7h-.07c0,4.48,0,9,0,13.43,0,.86.25,1,1.06,1,2.44-.06,4.88-.07,7.32,0,.9,0,1.1-.22,1.1-1.11,0-8.11,0-16.22,0-24.33a8.55,8.55,0,0,1,.22-2.14,3.06,3.06,0,0,1,2.2-2.3,7.3,7.3,0,0,1,2.13-.19c6.64,0,13.27,0,19.9,0,.76,0,1-.16,1-1-.05-2.51-.06-5,0-7.55,0-.87-.26-1-1.07-1-6.64,0-13.27,0-19.91,0a20.12,20.12,0,0,0-3.1.23A12.48,12.48,0,0,0,234,88.9C233.8,93.32,234,97.77,234,102.2Zm41.21-5.38c0,6.28,0,12.55,0,18.83,0,.74.13,1,1,1,2.56-.06,5.12,0,7.68,0,.76,0,1-.16,1-1q0-18.78,0-37.54c0-1-.31-1.11-1.16-1.09-2.44,0-4.88.06-7.32,0-1,0-1.18.26-1.17,1.19C275.2,84.42,275.18,90.62,275.18,96.82Zm4.87-27.93c1.32,0,2.64,0,4,0,.51,0,.8-.05.79-.7,0-2.39,0-4.79,0-7.19,0-.58-.2-.76-.76-.75q-4.08,0-8.16,0c-.5,0-.72.11-.71.66q0,3.64,0,7.31c0,.53.16.68.68.67C277.25,68.87,278.65,68.89,280.05,68.89Zm-42.18,9.48c-2.25-2.21-12-7.94-14.56-8.51a39.59,39.59,0,0,1,10.31,13.61A14.25,14.25,0,0,1,237.87,78.37Z" transform="translate(-0.46)"/><path class="cls-1" d="M104.66,77.06c3.32,0,6.64,0,10,0A12.91,12.91,0,0,1,126.81,86a14.79,14.79,0,0,1,.6,4.13c0,4.44,0,8.88,0,13.31-.06,6.25-3.82,11.31-9.41,12.8a12.37,12.37,0,0,1-3.32.4c-5.76,0-11.52,0-17.27,0-9.51,0-15.49-7.93-12.87-17.06a12.36,12.36,0,0,1,12-9.16c5.6,0,11.2,0,16.79,0,.65,0,.9.12.89.83q-.07,3.72,0,7.44c0,.82-.31.89-1,.88-5.36,0-10.72.06-16.07,0a3.86,3.86,0,0,0-4.2,4.13c0,2.38,1.59,3.92,4.16,3.93,5.72,0,11.44,0,17.15,0a3.7,3.7,0,0,0,4-4c0-4.28,0-8.56,0-12.84,0-3.18-1.38-4.57-4.6-4.57-6.36,0-12.72,0-19.08,0-1,0-1.38-.16-1.33-1.28.11-2.27.07-4.56,0-6.83,0-.82.25-1,1-1C97.78,77.09,101.22,77.06,104.66,77.06Z" transform="translate(-0.46)"/><path class="cls-1" d="M203.27,77.06c3.32,0,6.64,0,10,0a12.93,12.93,0,0,1,12.2,9.07,14.87,14.87,0,0,1,.56,4.14q0,6.52,0,13.07c0,6.25-3.84,11.41-9.46,12.9a12.67,12.67,0,0,1-3.19.39c-6,0-12,0-18,0a12.63,12.63,0,0,1-12.8-12c-.43-6.5,3.29-12.09,9.15-13.77a12.05,12.05,0,0,1,3.42-.46c5.56,0,11.12,0,16.68,0,.82,0,1.09.19,1.06,1q-.09,3.54,0,7.07c0,.88-.27,1-1.08,1-5.28,0-10.56.08-15.83-.06a4,4,0,0,0-4.44,4.18c0,2.38,1.73,3.89,4.47,3.9q8.34,0,16.67,0c2.66,0,4.22-1.42,4.26-4.08q.12-6.66,0-13.31c0-2.67-1.62-4.06-4.41-4.07-6.44,0-12.88,0-19.31,0-1.09,0-1.34-.29-1.31-1.33.09-2.27.06-4.55,0-6.83,0-.75.22-.93,1-.92C196.32,77.09,199.8,77.06,203.27,77.06Z" transform="translate(-0.46)"/><path class="cls-1" d="M360.67,77.06c3,0,6.08,0,9.12,0a12.88,12.88,0,0,1,12.07,8.75c2.3,7.24-1.59,15-8.53,17a14.27,14.27,0,0,1-3.79.47c-5.44,0-10.87,0-16.31,0-.86,0-1.06-.24-1-1.06q.09-3.48,0-7c0-.86.24-1,1.06-1,5.36,0,10.72,0,16.08,0,3.74,0,4.69-3.54,3.82-5.77-.7-1.8-2.21-2.38-4-2.38-5,0-10,0-15,0-.84,0-1.69,0-2.52,0a3.5,3.5,0,0,0-3.44,3.47c-.07,4.87-.06,9.75,0,14.63,0,2,1.7,3.3,4,3.32,4.27,0,8.55,0,12.83,0,1.2,0,2.4,0,3.6,0,.56,0,.77.13.76.73,0,2.56,0,5.11,0,7.67,0,.53-.14.68-.67.68-5.92,0-11.86.28-17.75-.11a12.29,12.29,0,0,1-11.83-12.38c0-4.8,0-9.6,0-14.39a12.7,12.7,0,0,1,12.83-12.71Z" transform="translate(-0.46)"/><path class="cls-1" d="M318.23,116.64h-12a12.77,12.77,0,0,1-13.14-12.56c-.15-4.75-.16-9.52,0-14.27A12.69,12.69,0,0,1,303,77.43a12.33,12.33,0,0,1,3-.37c8.35,0,16.71,0,25.07,0,.93,0,1.21.23,1.18,1.18q-.11,3.6,0,7.19c0,1-.24,1.2-1.19,1.2-8,0-16,0-24,0a10.63,10.63,0,0,0-1.79.09,3.09,3.09,0,0,0-2.64,3.22c0,4.64-.05,9.28,0,13.91,0,2.16,1.37,3.28,3.72,3.29,8.2,0,16.4,0,24.59,0,1.09,0,1.34.3,1.3,1.33-.08,2.4-.06,4.8,0,7.2,0,.81-.17,1.07-1,1.06C326.87,116.61,322.55,116.64,318.23,116.64Z" transform="translate(-0.46)"/><path class="cls-1" d="M135.59,95.18c0-5.68,0-11.35,0-17,0-.89.2-1.14,1.11-1.11q3.58.1,7.19,0c1,0,1.17.27,1.17,1.19,0,9.11,0,18.23,0,27.34,0,1.12.34,1.34,1.34,1.25A19,19,0,0,0,157.05,102c7.48-6.3,12.18-14.43,15.24-23.59.35-1.06.75-1.42,1.87-1.38,2.59.1,5.19.06,7.79,0,.7,0,.83.21.62.82-3.95,11.47-9.19,22.18-18.66,30.21a35.34,35.34,0,0,1-22.29,8.65,6.39,6.39,0,0,1-3.69-.62,4.44,4.44,0,0,1-2.35-4C135.61,106.45,135.59,100.82,135.59,95.18Z" transform="translate(-0.46)"/><path class="cls-1" d="M234,102.2c0-4.43-.17-8.88,0-13.3a12.48,12.48,0,0,1,10.71-11.61,20.12,20.12,0,0,1,3.1-.23c6.64,0,13.27,0,19.91,0,.81,0,1.09.15,1.07,1-.07,2.52-.06,5,0,7.55,0,.82-.25,1-1,1-6.63,0-13.26,0-19.9,0a7.3,7.3,0,0,0-2.13.19,3.06,3.06,0,0,0-2.2,2.3,8.55,8.55,0,0,0-.22,2.14c0,8.11,0,16.22,0,24.33,0,.89-.2,1.14-1.1,1.11-2.44-.07-4.88-.06-7.32,0-.81,0-1.07-.17-1.06-1,.05-4.48,0-8.95,0-13.43Z" transform="translate(-0.46)"/><path class="cls-1" d="M275.18,96.82c0-6.2,0-12.4,0-18.59,0-.93.21-1.22,1.17-1.19,2.44.07,4.88.06,7.32,0,.85,0,1.17.13,1.16,1.09q0,18.77,0,37.54c0,.81-.25,1-1,1-2.56,0-5.12-.05-7.68,0-.83,0-1-.27-1-1C275.19,109.37,275.18,103.1,275.18,96.82Z" transform="translate(-0.46)"/><path class="cls-1" d="M280.05,68.89c-1.4,0-2.8,0-4.2,0-.52,0-.69-.14-.68-.67q0-3.66,0-7.31c0-.55.21-.66.71-.66q4.08,0,8.16,0c.56,0,.77.17.76.75,0,2.4,0,4.8,0,7.19,0,.65-.28.71-.79.7C282.69,68.88,281.37,68.89,280.05,68.89Z" transform="translate(-0.46)"/><path class="cls-4" d="M255.72,91.78c-.12-.1-.23-.21-.06-.35a1.59,1.59,0,0,1,.21.2Z" transform="translate(-0.46)"/><path class="cls-4" d="M255.87,91.63l.24.23-.25.17-.14-.25Z" transform="translate(-0.46)"/><path class="cls-3" d="M49.85,72.32l.23.15-.07.08a2.13,2.13,0,0,1-.16-.25Z" transform="translate(-0.46)"/></svg>